<svg xmlns="http://www.w3.org/2000/svg" viewBox="0 0 64 64" role="img" aria-label="OOCXX favicon">
  <rect width="64" height="64" rx="10" fill="#3f362d"/>
  <rect x="4" y="4" width="56" height="56" rx="8" fill="#efe7d2"/>
  <path d="M4 16h56v8H4z" fill="#b85f3f"/>
  <circle cx="10" cy="10" r="2" fill="#efe7d2"/>
  <circle cx="16" cy="10" r="2" fill="#d9c5a1"/>
  <circle cx="22" cy="10" r="2" fill="#3f362d"/>
  <path d="M20 33a9 9 0 1 1 0 .1zm0-4.5a4.5 4.5 0 1 0 0 9a4.5 4.5 0 0 0 0-9z" fill="#3f362d"/>
  <path d="M35.8 28.2l8.1 8.1m0-8.1l-8.1 8.1" stroke="#3f362d" stroke-linecap="square" stroke-width="4.25"/>
  <path d="M8 48h48" stroke="#d7cfbe" stroke-width="2"/>
  <path d="M8 53h32" stroke="#d7cfbe" stroke-width="2"/>
</svg>
